<?xml version="1.0" encoding="utf-8"?>
<!-- Generator: Adobe Illustrator 16.0.0, SVG Export Plug-In . SVG Version: 6.00 Build 0)  -->
<!DOCTYPE svg PUBLIC "-//W3C//DTD SVG 1.1//EN" "http://www.w3.org/Graphics/SVG/1.1/DTD/svg11.dtd">
<svg version="1.1" id="Ebene_1" xmlns="http://www.w3.org/2000/svg" xmlns:xlink="http://www.w3.org/1999/xlink" x="0px" y="0px"
	 width="653.412px" height="76.055px" viewBox="0 0 653.412 76.055" enable-background="new 0 0 653.412 76.055"
	 xml:space="preserve">
<g>
	<path fill="#ffffff" d="M17.793,55.192c-3.48-3.705-6.962-7.412-10.443-11.117c-0.385-0.709-0.725-1.445-1.161-2.121
		c-5.212-8.061-9.315-17.152-2.942-25.465c3.538-4.615,12.396-9.861,16.512-8.367c9.107,3.307,17.158,10.19,24.764,16.648
		c3.279,2.785,6.209,8.15,6.16,12.307C50.481,54.063,33.751,62.938,17.793,55.192z M8.381,9.441
		c-0.193,1.042-0.386,2.083-0.579,3.125c-0.6,0.812-1.198,1.626-1.798,2.438c1.039,0.051,2.095,0.001,3.114,0.175
		c2.222,0.38,4.966,0.189,6.542,1.438c7.087,5.616,13.958,11.524,20.657,17.603c2.811,2.549,5.217,5.635,7.337,8.793
		c0.597,0.889-0.468,2.895-0.771,4.389c1.626-1.146,4.274-2.02,4.669-3.494c0.876-3.27,2.167-8.12,0.557-10.065
		c-6.453-7.797-13.184-15.822-21.358-21.559C22.203,9.092,14.605,10.247,8.381,9.441z M11.54,25.348
		c0.167-0.232,0.336-0.463,0.504-0.695c-2.863-1.584-5.726-3.167-8.588-4.752c-0.324,0.999-1.162,2.213-0.854,2.945
		c0.486,1.157,2.048,1.843,2.611,2.994c1.445,2.956,2.604,6.054,3.836,9.111c0.109,0.27,0.024,0.876-0.146,0.957
		c-1.16,0.551-2.366,1.004-3.558,1.489c1.387-0.16,2.819-0.594,4.145-0.377c0.808,0.131,1.482,1.238,2.167,1.953
		c2.464,2.574,4.647,5.504,7.428,7.668c3.037,2.361,6.424,4.953,10.024,5.711c3.157,0.664,6.819-1.07,10.258-1.744
		c-1.596-1.943-2.959-4.152-4.83-5.781C26.956,38.237,19.219,31.825,11.54,25.348z M40.92,47.481
		c-0.25,0.551-0.498,1.102-0.747,1.654c1.198,0.273,2.389,0.662,3.601,0.754c0.407,0.031,0.872-0.691,1.31-1.07
		c-0.871-0.053-1.839,0.109-2.579-0.229c-0.573-0.264-0.87-1.146-1.268-1.766c-1.627-2.527-3.162-5.121-4.918-7.553
		c-0.548-0.758-1.688-1.09-2.558-1.617c0.179-0.258,0.304-0.6,0.548-0.76c0.657-0.432,1.363-0.787,2.05-1.171
		c-1.02-0.059-2.088,0.056-3.049-0.213c-1.764-0.492-3.466-1.209-5.194-1.833c0.1-0.162,0.292-0.329,0.284-0.484
		c-0.044-0.792,0.15-2.009-0.27-2.293c-1.672-1.134-3.528-2-5.344-2.91c-0.582-0.293-1.539-0.223-1.824-0.65
		c-1.189-1.789-1.875-4.033-3.366-5.462c-1.011-0.968-3.082-0.774-4.631-1.253c-1.142-0.354-2.245-0.891-3.271-1.503
		C9.509,19.01,9.61,18.029,9.87,17.647c0.381-0.561,1.025-0.942,1.557-1.4c-2.274,0.115-4.548,0.232-6.823,0.35
		c0.12,0.65,0.005,1.565,0.395,1.911c5.26,4.669,10.452,9.43,15.938,13.823C27.459,37.554,34.248,42.444,40.92,47.481z"/>
</g>
<text transform="matrix(1 0 0 1 62.0835 52.207)" fill="#ffffff" font-family="'NothingYouCouldDo'" font-size="60">Little Bean Roastery</text>
</svg>
